HIERARCHY
ROOT hips
{
	OFFSET 0 0 0
	CHANNELS 6 Xposition Yposition Zposition Zrotation Xrotation Yrotation
	JOINT spine
	{
		OFFSET 0 8 0
		CHANNELS 3 Zrotation Xrotation Yrotation
		JOINT chest
		{
			OFFSET 0 6 0
			CHANNELS 3 Zrotation Xrotation Yrotation
			JOINT neck
			{
				OFFSET 0 5 0
				CHANNELS 3 Zrotation Xrotation Yrotation
				JOINT head
				{
					OFFSET 0 4 0
					CHANNELS 3 Zrotation Xrotation Yrotation
				}
			}
			JOINT lshoulder
			{
				OFFSET -4 3 0
				CHANNELS 3 Zrotation Xrotation Yrotation
				JOINT lelbow
				{
					OFFSET -6 0 0
					CHANNELS 3 Zrotation Xrotation Yrotation
					JOINT lhand
					{
						OFFSET -5 0 0
						CHANNELS 3 Zrotation Xrotation Yrotation
					}
				}
			}
			JOINT rshoulder
			{
				OFFSET 4 3 0
				CHANNELS 3 Zrotation Xrotation Yrotation
				JOINT relbow
				{
					OFFSET 6 0 0
					CHANNELS 3 Zrotation Xrotation Yrotation
					JOINT rhand
					{
						OFFSET 5 0 0
						CHANNELS 3 Zrotation Xrotation Yrotation
					}
				}
			}
		}
	}
	JOINT lhip
	{
		OFFSET -3 0 0
		CHANNELS 3 Zrotation Xrotation Yrotation
		JOINT lknee
		{
			OFFSET 0 -12 0
			CHANNELS 3 Zrotation Xrotation Yrotation
			JOINT lankle
			{
				OFFSET 0 -12 0
				CHANNELS 3 Zrotation Xrotation Yrotation
			}
		}
	}
	JOINT rhip
	{
		OFFSET 3 0 0
		CHANNELS 3 Zrotation Xrotation Yrotation
		JOINT rknee
		{
			OFFSET 0 -12 0
			CHANNELS 3 Zrotation Xrotation Yrotation
			JOINT rankle
			{
				OFFSET 0 -12 0
				CHANNELS 3 Zrotation Xrotation Yrotation
			}
		}
	}
}
MOTION
Frames: 36
Frame Time: 0.033333
0.000 0.000 0.000 0.000 0.000 0.000 0.000 6.000 0.000 -0.000 0.000 0.000 0.000 -0.000 0.000 0.000 0.000 0.000 0.000 0.000 0.000 0.000 10.000 0.000 0.000 0.000 0.000 12.000 -0.000 0.000 -15.000 0.000 0.000 0.000 0.000 0.000 0.000 0.000 0.000 0.000 5.000 0.000 0.000 0.000 0.000 0.000 0.000 0.000 0.000 5.000 0.000 0.000 0.000 0.000
0.000 0.000 0.000 0.000 0.000 0.000 0.000 6.032 0.000 -0.024 0.000 0.000 0.000 -0.016 0.000 0.000 0.000 0.000 0.000 0.000 0.000 0.000 10.000 0.000 0.000 0.000 0.000 12.442 -0.064 0.000 -15.321 0.000 0.000 0.040 0.000 0.000 0.000 0.000 0.000 0.000 5.000 0.000 0.000 0.000 0.000 0.000 0.000 0.000 0.000 5.000 0.000 0.000 0.000 0.000
0.000 0.000 0.000 0.000 0.000 0.000 0.000 6.128 0.000 -0.096 0.000 0.000 0.000 -0.064 0.000 0.000 0.000 0.000 0.000 0.000 0.000 0.000 10.000 0.000 0.000 0.000 0.000 13.754 -0.255 0.000 -16.275 0.000 0.000 0.159 0.000 0.000 0.000 0.000 0.000 0.000 5.000 0.000 0.000 0.000 0.000 0.000 0.000 0.000 0.000 5.000 0.000 0.000 0.000 0.000
0.000 0.000 0.000 0.000 0.000 0.000 0.000 6.283 0.000 -0.212 0.000 0.000 0.000 -0.142 0.000 0.000 0.000 0.000 0.000 0.000 0.000 0.000 10.000 0.000 0.000 0.000 0.000 15.893 -0.566 0.000 -17.831 0.000 0.000 0.354 0.000 0.000 0.000 0.000 0.000 0.000 5.000 0.000 0.000 0.000 0.000 0.000 0.000 0.000 0.000 5.000 0.000 0.000 0.000 0.000
0.000 0.000 0.000 0.000 0.000 0.000 0.000 6.494 0.000 -0.370 0.000 0.000 0.000 -0.247 0.000 0.000 0.000 0.000 0.000 0.000 0.000 0.000 10.000 0.000 0.000 0.000 0.000 18.791 -0.988 0.000 -19.939 0.000 0.000 0.617 0.000 0.000 0.000 0.000 0.000 0.000 5.000 0.000 0.000 0.000 0.000 0.000 0.000 0.000 0.000 5.000 0.000 0.000 0.000 0.000
0.000 0.000 0.000 0.000 0.000 0.000 0.000 6.753 0.000 -0.565 0.000 0.000 0.000 -0.377 0.000 0.000 0.000 0.000 0.000 0.000 0.000 0.000 10.000 0.000 0.000 0.000 0.000 22.354 -1.506 0.000 -22.530 0.000 0.000 0.941 0.000 0.000 0.000 0.000 0.000 0.000 5.000 0.000 0.000 0.000 0.000 0.000 0.000 0.000 0.000 5.000 0.000 0.000 0.000 0.000
0.000 0.000 0.000 0.000 0.000 0.000 0.000 7.052 0.000 -0.789 0.000 0.000 0.000 -0.526 0.000 0.000 0.000 0.000 0.000 0.000 0.000 0.000 10.000 0.000 0.000 0.000 0.000 26.469 -2.105 0.000 -25.523 0.000 0.000 1.315 0.000 0.000 0.000 0.000 0.000 0.000 5.000 0.000 0.000 0.000 0.000 0.000 0.000 0.000 0.000 5.000 0.000 0.000 0.000 0.000
0.000 0.000 0.000 0.000 0.000 0.000 0.000 7.382 0.000 -1.036 0.000 0.000 0.000 -0.691 0.000 0.000 0.000 0.000 0.000 0.000 0.000 0.000 10.000 0.000 0.000 0.000 0.000 31.002 -2.764 0.000 -28.820 0.000 0.000 1.727 0.000 0.000 0.000 0.000 0.000 0.000 5.000 0.000 0.000 0.000 0.000 0.000 0.000 0.000 0.000 5.000 0.000 0.000 0.000 0.000
0.000 0.000 0.000 0.000 0.000 0.000 0.000 7.732 0.000 -1.299 0.000 0.000 0.000 -0.866 0.000 0.000 0.000 0.000 0.000 0.000 0.000 0.000 10.000 0.000 0.000 0.000 0.000 35.809 -3.463 0.000 -32.315 0.000 0.000 2.164 0.000 0.000 0.000 0.000 0.000 0.000 5.000 0.000 0.000 0.000 0.000 0.000 0.000 0.000 0.000 5.000 0.000 0.000 0.000 0.000
0.000 0.000 0.000 0.000 0.000 0.000 0.000 8.090 0.000 -1.567 0.000 0.000 0.000 -1.045 0.000 0.000 0.000 0.000 0.000 0.000 0.000 0.000 10.000 0.000 0.000 0.000 0.000 40.734 -4.179 0.000 -35.897 0.000 0.000 2.612 0.000 0.000 0.000 0.000 0.000 0.000 5.000 0.000 0.000 0.000 0.000 0.000 0.000 0.000 0.000 5.000 0.000 0.000 0.000 0.000
0.000 0.000 0.000 0.000 0.000 0.000 0.000 8.445 0.000 -1.834 0.000 0.000 0.000 -1.223 0.000 0.000 0.000 0.000 0.000 0.000 0.000 0.000 10.000 0.000 0.000 0.000 0.000 45.619 -4.890 0.000 -39.450 0.000 0.000 3.056 0.000 0.000 0.000 0.000 0.000 0.000 5.000 0.000 0.000 0.000 0.000 0.000 0.000 0.000 0.000 5.000 0.000 0.000 0.000 0.000
0.000 0.000 0.000 0.000 0.000 0.000 0.000 8.786 0.000 -2.090 0.000 0.000 0.000 -1.393 0.000 0.000 0.000 0.000 0.000 0.000 0.000 0.000 10.000 0.000 0.000 0.000 0.000 50.308 -5.572 0.000 -42.861 0.000 0.000 3.483 0.000 0.000 0.000 0.000 0.000 0.000 5.000 0.000 0.000 0.000 0.000 0.000 0.000 0.000 0.000 5.000 0.000 0.000 0.000 0.000
0.000 0.000 0.000 0.000 0.000 0.000 0.000 9.102 0.000 -2.326 0.000 0.000 0.000 -1.551 0.000 0.000 0.000 0.000 0.000 0.000 0.000 0.000 10.000 0.000 0.000 0.000 0.000 54.650 -6.204 0.000 -46.018 0.000 0.000 3.877 0.000 0.000 0.000 0.000 0.000 0.000 5.000 0.000 0.000 0.000 0.000 0.000 0.000 0.000 0.000 5.000 0.000 0.000 0.000 0.000
0.000 0.000 0.000 0.000 0.000 0.000 0.000 9.382 0.000 -2.537 0.000 0.000 0.000 -1.691 0.000 0.000 0.000 0.000 0.000 0.000 0.000 0.000 10.000 0.000 0.000 0.000 0.000 58.504 -6.764 0.000 -48.821 0.000 0.000 4.228 0.000 0.000 0.000 0.000 0.000 0.000 5.000 0.000 0.000 0.000 0.000 0.000 0.000 0.000 0.000 5.000 0.000 0.000 0.000 0.000
0.000 0.000 0.000 0.000 0.000 0.000 0.000 9.618 0.000 -2.714 0.000 0.000 0.000 -1.809 0.000 0.000 0.000 0.000 0.000 0.000 0.000 0.000 10.000 0.000 0.000 0.000 0.000 61.748 -7.236 0.000 -51.180 0.000 0.000 4.523 0.000 0.000 0.000 0.000 0.000 0.000 5.000 0.000 0.000 0.000 0.000 0.000 0.000 0.000 0.000 5.000 0.000 0.000 0.000 0.000
0.000 0.000 0.000 0.000 0.000 0.000 0.000 9.802 0.000 -2.851 0.000 0.000 0.000 -1.901 0.000 0.000 0.000 0.000 0.000 0.000 0.000 0.000 10.000 0.000 0.000 0.000 0.000 64.277 -7.604 0.000 -53.019 0.000 0.000 4.752 0.000 0.000 0.000 0.000 0.000 0.000 5.000 0.000 0.000 0.000 0.000 0.000 0.000 0.000 0.000 5.000 0.000 0.000 0.000 0.000
0.000 0.000 0.000 0.000 0.000 0.000 0.000 9.928 0.000 -2.946 0.000 0.000 0.000 -1.964 0.000 0.000 0.000 0.000 0.000 0.000 0.000 0.000 10.000 0.000 0.000 0.000 0.000 66.009 -7.856 0.000 -54.279 0.000 0.000 4.910 0.000 0.000 0.000 0.000 0.000 0.000 5.000 0.000 0.000 0.000 0.000 0.000 0.000 0.000 0.000 5.000 0.000 0.000 0.000 0.000
0.000 0.000 0.000 0.000 0.000 0.000 0.000 9.992 0.000 -2.994 0.000 0.000 0.000 -1.996 0.000 0.000 0.000 0.000 0.000 0.000 0.000 0.000 10.000 0.000 0.000 0.000 0.000 66.889 -7.984 0.000 -54.919 0.000 0.000 4.990 0.000 0.000 0.000 0.000 0.000 0.000 5.000 0.000 0.000 0.000 0.000 0.000 0.000 0.000 0.000 5.000 0.000 0.000 0.000 0.000
0.000 0.000 0.000 0.000 0.000 0.000 0.000 9.992 0.000 -2.994 0.000 0.000 0.000 -1.996 0.000 0.000 0.000 0.000 0.000 0.000 0.000 0.000 10.000 0.000 0.000 0.000 0.000 66.889 -7.984 0.000 -54.919 0.000 0.000 4.990 0.000 0.000 0.000 0.000 0.000 0.000 5.000 0.000 0.000 0.000 0.000 0.000 0.000 0.000 0.000 5.000 0.000 0.000 0.000 0.000
0.000 0.000 0.000 0.000 0.000 0.000 0.000 9.928 0.000 -2.946 0.000 0.000 0.000 -1.964 0.000 0.000 0.000 0.000 0.000 0.000 0.000 0.000 10.000 0.000 0.000 0.000 0.000 66.009 -7.856 0.000 -54.279 0.000 0.000 4.910 0.000 0.000 0.000 0.000 0.000 0.000 5.000 0.000 0.000 0.000 0.000 0.000 0.000 0.000 0.000 5.000 0.000 0.000 0.000 0.000
0.000 0.000 0.000 0.000 0.000 0.000 0.000 9.802 0.000 -2.851 0.000 0.000 0.000 -1.901 0.000 0.000 0.000 0.000 0.000 0.000 0.000 0.000 10.000 0.000 0.000 0.000 0.000 64.277 -7.604 0.000 -53.019 0.000 0.000 4.752 0.000 0.000 0.000 0.000 0.000 0.000 5.000 0.000 0.000 0.000 0.000 0.000 0.000 0.000 0.000 5.000 0.000 0.000 0.000 0.000
0.000 0.000 0.000 0.000 0.000 0.000 0.000 9.618 0.000 -2.714 0.000 0.000 0.000 -1.809 0.000 0.000 0.000 0.000 0.000 0.000 0.000 0.000 10.000 0.000 0.000 0.000 0.000 61.748 -7.236 0.000 -51.180 0.000 0.000 4.523 0.000 0.000 0.000 0.000 0.000 0.000 5.000 0.000 0.000 0.000 0.000 0.000 0.000 0.000 0.000 5.000 0.000 0.000 0.000 0.000
0.000 0.000 0.000 0.000 0.000 0.000 0.000 9.382 0.000 -2.537 0.000 0.000 0.000 -1.691 0.000 0.000 0.000 0.000 0.000 0.000 0.000 0.000 10.000 0.000 0.000 0.000 0.000 58.504 -6.764 0.000 -48.821 0.000 0.000 4.228 0.000 0.000 0.000 0.000 0.000 0.000 5.000 0.000 0.000 0.000 0.000 0.000 0.000 0.000 0.000 5.000 0.000 0.000 0.000 0.000
0.000 0.000 0.000 0.000 0.000 0.000 0.000 9.102 0.000 -2.326 0.000 0.000 0.000 -1.551 0.000 0.000 0.000 0.000 0.000 0.000 0.000 0.000 10.000 0.000 0.000 0.000 0.000 54.650 -6.204 0.000 -46.018 0.000 0.000 3.877 0.000 0.000 0.000 0.000 0.000 0.000 5.000 0.000 0.000 0.000 0.000 0.000 0.000 0.000 0.000 5.000 0.000 0.000 0.000 0.000
0.000 0.000 0.000 0.000 0.000 0.000 0.000 8.786 0.000 -2.090 0.000 0.000 0.000 -1.393 0.000 0.000 0.000 0.000 0.000 0.000 0.000 0.000 10.000 0.000 0.000 0.000 0.000 50.308 -5.572 0.000 -42.861 0.000 0.000 3.483 0.000 0.000 0.000 0.000 0.000 0.000 5.000 0.000 0.000 0.000 0.000 0.000 0.000 0.000 0.000 5.000 0.000 0.000 0.000 0.000
0.000 0.000 0.000 0.000 0.000 0.000 0.000 8.445 0.000 -1.834 0.000 0.000 0.000 -1.223 0.000 0.000 0.000 0.000 0.000 0.000 0.000 0.000 10.000 0.000 0.000 0.000 0.000 45.619 -4.890 0.000 -39.450 0.000 0.000 3.056 0.000 0.000 0.000 0.000 0.000 0.000 5.000 0.000 0.000 0.000 0.000 0.000 0.000 0.000 0.000 5.000 0.000 0.000 0.000 0.000
0.000 0.000 0.000 0.000 0.000 0.000 0.000 8.090 0.000 -1.567 0.000 0.000 0.000 -1.045 0.000 0.000 0.000 0.000 0.000 0.000 0.000 0.000 10.000 0.000 0.000 0.000 0.000 40.734 -4.179 0.000 -35.897 0.000 0.000 2.612 0.000 0.000 0.000 0.000 0.000 0.000 5.000 0.000 0.000 0.000 0.000 0.000 0.000 0.000 0.000 5.000 0.000 0.000 0.000 0.000
0.000 0.000 0.000 0.000 0.000 0.000 0.000 7.732 0.000 -1.299 0.000 0.000 0.000 -0.866 0.000 0.000 0.000 0.000 0.000 0.000 0.000 0.000 10.000 0.000 0.000 0.000 0.000 35.809 -3.463 0.000 -32.315 0.000 0.000 2.164 0.000 0.000 0.000 0.000 0.000 0.000 5.000 0.000 0.000 0.000 0.000 0.000 0.000 0.000 0.000 5.000 0.000 0.000 0.000 0.000
0.000 0.000 0.000 0.000 0.000 0.000 0.000 7.382 0.000 -1.036 0.000 0.000 0.000 -0.691 0.000 0.000 0.000 0.000 0.000 0.000 0.000 0.000 10.000 0.000 0.000 0.000 0.000 31.002 -2.764 0.000 -28.820 0.000 0.000 1.727 0.000 0.000 0.000 0.000 0.000 0.000 5.000 0.000 0.000 0.000 0.000 0.000 0.000 0.000 0.000 5.000 0.000 0.000 0.000 0.000
0.000 0.000 0.000 0.000 0.000 0.000 0.000 7.052 0.000 -0.789 0.000 0.000 0.000 -0.526 0.000 0.000 0.000 0.000 0.000 0.000 0.000 0.000 10.000 0.000 0.000 0.000 0.000 26.469 -2.105 0.000 -25.523 0.000 0.000 1.315 0.000 0.000 0.000 0.000 0.000 0.000 5.000 0.000 0.000 0.000 0.000 0.000 0.000 0.000 0.000 5.000 0.000 0.000 0.000 0.000
0.000 0.000 0.000 0.000 0.000 0.000 0.000 6.753 0.000 -0.565 0.000 0.000 0.000 -0.377 0.000 0.000 0.000 0.000 0.000 0.000 0.000 0.000 10.000 0.000 0.000 0.000 0.000 22.354 -1.506 0.000 -22.530 0.000 0.000 0.941 0.000 0.000 0.000 0.000 0.000 0.000 5.000 0.000 0.000 0.000 0.000 0.000 0.000 0.000 0.000 5.000 0.000 0.000 0.000 0.000
0.000 0.000 0.000 0.000 0.000 0.000 0.000 6.494 0.000 -0.370 0.000 0.000 0.000 -0.247 0.000 0.000 0.000 0.000 0.000 0.000 0.000 0.000 10.000 0.000 0.000 0.000 0.000 18.791 -0.988 0.000 -19.939 0.000 0.000 0.617 0.000 0.000 0.000 0.000 0.000 0.000 5.000 0.000 0.000 0.000 0.000 0.000 0.000 0.000 0.000 5.000 0.000 0.000 0.000 0.000
0.000 0.000 0.000 0.000 0.000 0.000 0.000 6.283 0.000 -0.212 0.000 0.000 0.000 -0.142 0.000 0.000 0.000 0.000 0.000 0.000 0.000 0.000 10.000 0.000 0.000 0.000 0.000 15.893 -0.566 0.000 -17.831 0.000 0.000 0.354 0.000 0.000 0.000 0.000 0.000 0.000 5.000 0.000 0.000 0.000 0.000 0.000 0.000 0.000 0.000 5.000 0.000 0.000 0.000 0.000
0.000 0.000 0.000 0.000 0.000 0.000 0.000 6.128 0.000 -0.096 0.000 0.000 0.000 -0.064 0.000 0.000 0.000 0.000 0.000 0.000 0.000 0.000 10.000 0.000 0.000 0.000 0.000 13.754 -0.255 0.000 -16.275 0.000 0.000 0.159 0.000 0.000 0.000 0.000 0.000 0.000 5.000 0.000 0.000 0.000 0.000 0.000 0.000 0.000 0.000 5.000 0.000 0.000 0.000 0.000
0.000 0.000 0.000 0.000 0.000 0.000 0.000 6.032 0.000 -0.024 0.000 0.000 0.000 -0.016 0.000 0.000 0.000 0.000 0.000 0.000 0.000 0.000 10.000 0.000 0.000 0.000 0.000 12.442 -0.064 0.000 -15.321 0.000 0.000 0.040 0.000 0.000 0.000 0.000 0.000 0.000 5.000 0.000 0.000 0.000 0.000 0.000 0.000 0.000 0.000 5.000 0.000 0.000 0.000 0.000
0.000 0.000 0.000 0.000 0.000 0.000 0.000 6.000 0.000 -0.000 0.000 0.000 0.000 -0.000 0.000 0.000 0.000 0.000 0.000 0.000 0.000 0.000 10.000 0.000 0.000 0.000 0.000 12.000 -0.000 0.000 -15.000 0.000 0.000 0.000 0.000 0.000 0.000 0.000 0.000 0.000 5.000 0.000 0.000 0.000 0.000 0.000 0.000 0.000 0.000 5.000 0.000 0.000 0.000 0.000
